<svg xmlns="http://www.w3.org/2000/svg" viewBox="0 0 172.8 49.99"><defs><style>.cls-1{fill:#e20613;}</style></defs><title>Fichier 3</title><g id="Calque_2" data-name="Calque 2"><g id="Calque_1-2" data-name="Calque 1"><path class="cls-1" d="M40.94.71,25.24,29.42V49.3H15.7V34.77h2.72V46.58h4.09V28.71L36.33,3.44H31.79L16.67,31.07,0,.71H10.77L18.2,14.34l-1.56,2.82L9.15,3.44H4.61l12.06,22L30.17.71Z"/><path class="cls-1" d="M79.28,35.65C79.28,45.12,71.85,50,61.57,50a34.09,34.09,0,0,1-16.93-4.51l3.3-8.79c4.45,2.33,9.22,4.15,13.63,4.15,5.25,0,8.17-1.56,8.17-5.19,0-6.26-4.18-7.95-8.3-10.19s-8-4.54-8-10.9c0-4.18,2.86-8.14,10.06-8.14a24.47,24.47,0,0,1,9.73,2.14l1.36-3.73c-2.88-1.29-5.16-2.11-11.12-2.11-7.76,0-14.11,4-14.11,11.88,0,7.07,3.92,11.12,8.95,13.43l-.94,2.56c-6.91-3.12-10.74-8.47-10.74-16C46.58,4.93,54.43,0,63.42,0,71,0,73.86,1.39,78,3.47L74.7,12.29A24,24,0,0,0,63.45,9.15c-4.83,0-7.33,2-7.33,5.41,0,5,3.14,6.62,6.68,8.54,4.51,2.43,9.67,4.83,9.67,12.55,0,3-1.4,7.91-10.9,7.91a29.25,29.25,0,0,1-12.13-3.11L48,44.15a30.06,30.06,0,0,0,13.53,3.11c7.59,0,15-2.92,15-11.61,0-7.33-3.47-12.2-11.25-15.41l.91-2.56C74.67,21.12,79.28,26.7,79.28,35.65Z"/><path class="cls-1" d="M124.89,34.77c0,8-6.14,14.53-16,14.53h-19V25.59h18.39c6.07,0,9.86,3.8,9.86,8.79,0,4.41-2.85,8.5-9.08,8.5H96.63V32h2.73v8.14H109c4.54,0,6.36-2.7,6.36-5.78s-2.24-6.06-7.14-6.06H92.55V46.58h16.31c8.63,0,13.3-5.51,13.3-11.81,0-6.06-3-9.63-7.36-11.51a11.49,11.49,0,0,0,4.77-9.83c0-5.09-4.55-10-12.33-10H92.55V19.2h14.66c3.79,0,5.67-1.81,5.67-5.19,0-2.75-2.53-4.15-6.16-4.15H99.36V15.5H96.63V7.14h10.09c6.55,0,8.89,3.63,8.89,6.87,0,5.06-3.21,7.92-8.66,7.92H89.82V.71h17.42c9.41,0,15.05,6.23,15.05,12.72a14.74,14.74,0,0,1-3,9.28C122.84,25.33,124.89,29.32,124.89,34.77Z"/><path class="cls-1" d="M172.8,25c0,14.63-8.89,24.32-22.19,24.32H135.75V7.14H151.1C160.41,7.14,166,13.79,166,25c0,10.7-6,17.9-14.92,17.9h-8.5V13.53h2.73V40.16h5.77c7.4,0,12.2-6.07,12.2-15.18,0-9.77-4.44-15.12-12.2-15.12H138.48V46.58h12.13c11.84,0,19.46-8.5,19.46-21.6,0-12.3-5.9-21.54-19-21.54H135.75V.71h15.31C164.14.71,172.8,9.37,172.8,25Z"/></g></g></svg>